<svg xmlns="http://www.w3.org/2000/svg" id="Layer_1" data-name="Layer 1" viewBox="210 210 700 688">
  <defs>
    <style>
      .cls-1{fill: oklch(86.237% 0.17511 90.16deg);}
    </style>
  </defs>
  <circle cx="539.1" cy="540" r="69.7" class="cls-1"/>
  <path d="m541 890-23-251c0-4 1-8 3-11 4-6 11-9 18-9 8-1 16 3 21 9 2 3 3 7 3 11l-22 251Zm-127-83 64-188a16 16 0 0 1 20-9c3 1 6 3 8 6 2 5 2 10 0 15l-92 176Zm127-617 22 251c0 4-1 8-3 11-5 6-11 9-18 9-8 1-16-3-21-9-2-3-3-7-3-11l23-251ZM190 536l251-24c4 0 8 1 11 4 6 4 9 10 9 18 1 8-3 15-9 20-3 3-7 4-11 3l-251-21Zm700-1-251 22c-4 1-8 0-11-3-6-4-9-11-9-18-1-8 3-15 9-20 3-3 7-4 11-4l251 23ZM430 260l78 183c3 7 0 17-8 20h-1c-4 2-7 2-10 1-5-2-9-6-10-11l-49-193ZM277 398l185 69a16 16 0 0 1 9 21c-1 3-4 6-7 8-4 2-10 2-15-1l-172-97Zm536 21-182 79c-8 3-18 0-21-8v-11c1-5 6-9 11-10l192-50ZM676 275l-70 186a16 16 0 0 1-21 9c-3-2-6-4-7-7-3-5-3-10 0-15l98-173Zm-21 532-81-181a16 16 0 0 1 9-21h10c5 1 9 6 10 11l52 191Zm151-140-187-66a16 16 0 0 1-9-21c1-3 4-6 7-7 4-3 10-3 15 0l174 94Zm-533-8 181-82c8-3 17 0 21 8v11c-1 5-5 8-11 10l-191 53Z" class="cls-1"/>
</svg>
